<svg width="128" height="128" viewBox="0 0 128 128" fill="none" xmlns="http://www.w3.org/2000/svg">
<rect width="128" height="128" fill="white" fill-opacity="0.1"/>
<path d="M123.5 38.0427V15.1496L100.5 8.95726V31.8504L123.5 38.0427Z" fill="white" stroke="black" stroke-width="3"/>
<path d="M90.5 38.0427V15.1496L67.5 8.95726V31.8504L90.5 38.0427Z" fill="white" stroke="black" stroke-width="3"/>
<path d="M57.5 38.0427V15.1496L34.5 8.95726V31.8504L57.5 38.0427Z" fill="white" stroke="black" stroke-width="3"/>
<path d="M57.5 76.0427V53.1496L34.5 46.9573V69.8504L57.5 76.0427Z" fill="white" stroke="black" stroke-width="3"/>
<path d="M57.5 114.043V91.1496L34.5 84.9573V107.85L57.5 114.043Z" fill="white" stroke="black" stroke-width="3"/>
<path d="M90.5 76.0427V53.1496L67.5 46.9573V69.8504L90.5 76.0427Z" fill="white" stroke="black" stroke-width="3"/>
<path d="M7 16H24" stroke="black" stroke-width="2"/>
<path d="M7 52H24" stroke="black" stroke-width="2"/>
<path d="M7 58H24" stroke="black" stroke-width="2"/>
<path d="M7 22H24" stroke="black" stroke-width="2"/>
<path d="M7 64H24" stroke="black" stroke-width="2"/>
<path d="M7 70H24" stroke="black" stroke-width="2"/>
<path d="M7 28H24" stroke="black" stroke-width="2"/>
<path d="M7 76H24" stroke="black" stroke-width="2"/>
<path d="M7 82H24" stroke="black" stroke-width="2"/>
<path d="M7 34H24" stroke="black" stroke-width="2"/>
<path d="M7 88H24" stroke="black" stroke-width="2"/>
<path d="M7 94H24" stroke="black" stroke-width="2"/>
<path d="M7 40H24" stroke="black" stroke-width="2"/>
<path d="M7 100H24" stroke="black" stroke-width="2"/>
<path d="M7 106H24" stroke="black" stroke-width="2"/>
<path d="M7 46H24" stroke="black" stroke-width="2"/>
<path d="M7 112H24" stroke="black" stroke-width="2"/>
<path d="M7 118H24" stroke="black" stroke-width="2"/>
</svg>
