<svg id="Layer_1" data-name="Layer 1" xmlns="http://www.w3.org/2000/svg" viewBox="0 0 258.42 66.5"><defs><style>.cls-1{fill:#fff;}.cls-2,.cls-3,.cls-4{fill:none;stroke:#231f20;}.cls-2{stroke-width:2.49px;}.cls-3{stroke-width:0.75px;stroke-dasharray:0.99 0.99;}.cls-5{fill:#231f20;}</style></defs><title>spatial_quaranzine_logos</title><polyline class="cls-1" points="54.92 30.41 256.09 30.41 256.09 64.41 2.43 64.41 2.43 30.41 23.35 30.41"/><polyline class="cls-2" points="54.92 30.41 256.09 30.41 256.09 64.41 2.43 64.41 2.43 30.41 23.35 30.41"/><path class="cls-3" d="M23.18,29.57A31.49,31.49,0,0,1,52.58,1.81"/><polygon class="cls-4" points="52.02 28.93 52.02 2.73 52.02 1.77 52.98 1.77 53.9 1.77 54.87 1.77 54.87 2.73 54.87 28.93 54.87 29.89 53.9 29.89 52.98 29.89 52.02 29.89 52.02 28.93"/><path class="cls-5" d="M28.52,44.34a1.38,1.38,0,0,0-.63-1.19,2.58,2.58,0,0,0-1.5-.44,2.91,2.91,0,0,0-1.72.44,1.37,1.37,0,0,0-.62,1.17,1.28,1.28,0,0,0,.17.67,1.94,1.94,0,0,0,.41.49,2.5,2.5,0,0,0,.54.35,3.16,3.16,0,0,0,.57.22l2.69.86a6.92,6.92,0,0,1,1.33.57,4.35,4.35,0,0,1,1.06.82,3.52,3.52,0,0,1,.69,1.12,4.31,4.31,0,0,1,.24,1.49,4.74,4.74,0,0,1-.26,1.46,4,4,0,0,1-.89,1.45A4.93,4.93,0,0,1,29,54.93a6.28,6.28,0,0,1-2.54.45,8.44,8.44,0,0,1-2.16-.25,6,6,0,0,1-1.53-.65,3.6,3.6,0,0,1-1-.91,4.36,4.36,0,0,1-.55-1,3.65,3.65,0,0,1-.25-1,6.43,6.43,0,0,1-.06-.8l2.91,0a2.07,2.07,0,0,0,.22,1,1.94,1.94,0,0,0,.57.67,2.48,2.48,0,0,0,.84.38,4.81,4.81,0,0,0,1,.11,3.75,3.75,0,0,0,.79-.09,3.32,3.32,0,0,0,.78-.3A1.78,1.78,0,0,0,28.6,52a1.14,1.14,0,0,0,.23-.73,1.79,1.79,0,0,0-.07-.53,1.24,1.24,0,0,0-.28-.42A2.13,2.13,0,0,0,28,50a7.17,7.17,0,0,0-.88-.38l-3.19-1.15a4.2,4.2,0,0,1-1.11-.58,4.57,4.57,0,0,1-.86-.84,4.22,4.22,0,0,1-.57-1,3.62,3.62,0,0,1-.2-1.19,5,5,0,0,1,.26-1.5,4.24,4.24,0,0,1,.86-1.47,4.43,4.43,0,0,1,1.56-1.13,5.7,5.7,0,0,1,2.39-.45,6.49,6.49,0,0,1,2.72.49,4.54,4.54,0,0,1,1.59,1.15,3.56,3.56,0,0,1,.73,1.34,4.08,4.08,0,0,1,.19,1.08Z"/><path class="cls-5" d="M34.41,40.5h4.76a7.25,7.25,0,0,1,1.76.22,4.64,4.64,0,0,1,1.64.76,4,4,0,0,1,1.21,1.43,5.59,5.59,0,0,1,0,4.37,4.08,4.08,0,0,1-1.11,1.43,4.62,4.62,0,0,1-1.56.8,6.05,6.05,0,0,1-1.74.25H37.33v5.35H34.41ZM39,47.28a3.05,3.05,0,0,0,1.18-.2,1.92,1.92,0,0,0,.73-.5,1.64,1.64,0,0,0,.36-.69,2.76,2.76,0,0,0,.1-.75,2.31,2.31,0,0,0-.14-.76,2,2,0,0,0-.42-.7,2.15,2.15,0,0,0-.72-.5A2.69,2.69,0,0,0,39,43H37.33v4.3Z"/><path class="cls-5" d="M53.51,52.06H48.17l-1,3H44.07L49.39,40.5h3.07l5.25,14.61H54.5ZM50.87,44h0L49,49.69h3.75Z"/><path class="cls-5" d="M61.52,43.1H57.67V40.5H68.28v2.6H64.43v12H61.52Z"/><path class="cls-5" d="M70.67,40.5h2.91V55.11H70.67Z"/><path class="cls-5" d="M85,52.06H79.64l-1,3H75.54L80.87,40.5h3.07l5.24,14.61H86ZM82.34,44h0l-1.85,5.68h3.75Z"/><path class="cls-5" d="M91,40.5h2.92V52.39h5.61v2.72H91Z"/><path class="cls-5" d="M117.55,54.33a7.18,7.18,0,0,1-3.88,1.05,7,7,0,0,1-3-.63,6.66,6.66,0,0,1-2.22-1.68A7.51,7.51,0,0,1,107,50.65,8.67,8.67,0,0,1,107,45a7.41,7.41,0,0,1,1.38-2.42,6.82,6.82,0,0,1,2.22-1.69,7,7,0,0,1,3-.63,7,7,0,0,1,3,.63,6.82,6.82,0,0,1,2.22,1.69A7.41,7.41,0,0,1,120.3,45a8.62,8.62,0,0,1,.09,5.4,7.69,7.69,0,0,1-1.11,2.24l1.77,1.52-1.69,1.82Zm-1.84-4.8,1.34,1.15a4.56,4.56,0,0,0,.52-1.34,6.68,6.68,0,0,0,.18-1.54,6.78,6.78,0,0,0-.26-1.88,4.69,4.69,0,0,0-.76-1.59,3.78,3.78,0,0,0-1.29-1.09,4.07,4.07,0,0,0-3.56,0,3.71,3.71,0,0,0-1.27,1.09,4.7,4.7,0,0,0-.77,1.59,6.78,6.78,0,0,0-.25,1.88,6.9,6.9,0,0,0,.25,1.89,4.75,4.75,0,0,0,.77,1.58,3.63,3.63,0,0,0,3.06,1.51,4.52,4.52,0,0,0,.93-.11,3.76,3.76,0,0,0,.8-.26l-1.29-1.13Z"/><path class="cls-5" d="M132.49,40.5h2.92V49A7.45,7.45,0,0,1,134.9,52a5.29,5.29,0,0,1-1.34,2A5,5,0,0,1,131.62,55a7.73,7.73,0,0,1-4.6,0,5.11,5.11,0,0,1-1.93-1.11,5.41,5.41,0,0,1-1.34-2,7.46,7.46,0,0,1-.5-2.92V40.5h2.91v8.56a4.18,4.18,0,0,0,.8,2.77,3.43,3.43,0,0,0,4.74,0,4.18,4.18,0,0,0,.79-2.77Z"/><path class="cls-5" d="M146.52,52.06h-5.34l-1,3h-3.15L142.4,40.5h3.07l5.25,14.61h-3.21ZM143.88,44h0L142,49.69h3.75Z"/><path class="cls-5" d="M157.15,49.34h-1.71v5.77h-2.91V40.5H158a5.76,5.76,0,0,1,2,.34,4.31,4.31,0,0,1,1.51.92,3.83,3.83,0,0,1,.93,1.38,4.42,4.42,0,0,1,.33,1.71,5.23,5.23,0,0,1-.16,1.21,4.24,4.24,0,0,1-.5,1.21,4.12,4.12,0,0,1-.85,1,3.24,3.24,0,0,1-1.21.66l3.4,6.16H160Zm.23-2.37a3.65,3.65,0,0,0,1.25-.19,2.14,2.14,0,0,0,.77-.47,1.5,1.5,0,0,0,.38-.64,2.5,2.5,0,0,0,.11-.71,2.34,2.34,0,0,0-.12-.74,1.5,1.5,0,0,0-.4-.64,2.16,2.16,0,0,0-.8-.43,4.17,4.17,0,0,0-1.28-.17h-1.85v4Z"/><path class="cls-5" d="M173.51,52.06h-5.34l-.95,3h-3.15l5.32-14.61h3.07l5.25,14.61H174.5ZM170.87,44h0L169,49.69h3.75Z"/><path class="cls-5" d="M182.35,45.14h0v10h-2.79V40.5h3.12l5.93,9.81h0V40.5h2.8V55.11h-3Z"/><path class="cls-5" d="M193.72,52.81l6.78-9.71h-6.31V40.5h10v2.29l-6.8,9.71h6.8v2.61H193.72Z"/><path class="cls-5" d="M206.66,40.5h2.91V55.11h-2.91Z"/><path class="cls-5" d="M215.79,45.14h0v10H213V40.5h3.12L222,50.31h0V40.5h2.8V55.11h-3Z"/><path class="cls-5" d="M228.07,40.5h9.33v2.6H231v3.32h6.23V49H231V52.5h6.41v2.61h-9.33Z"/></svg>