<svg xmlns="http://www.w3.org/2000/svg" xmlns:xlink="http://www.w3.org/1999/xlink" viewBox="0 0 200 200"><defs><style>.cls-1,.cls-11,.cls-14,.cls-16,.cls-17,.cls-18,.cls-19,.cls-20,.cls-21,.cls-4,.cls-6,.cls-8,.cls-9{fill:none;}.cls-1,.cls-11,.cls-4,.cls-6,.cls-8,.cls-9{stroke:#b3b3b3;}.cls-1{stroke-miterlimit:10;}.cls-2{fill:#fff;}.cls-3{clip-path:url(#clip-path);}.cls-4{stroke-width:3.33px;}.cls-5{clip-path:url(#clip-path-2);}.cls-6{stroke-width:2.98px;}.cls-7{clip-path:url(#clip-path-3);}.cls-8{stroke-width:3.08px;}.cls-9{stroke-width:2.93px;}.cls-10{clip-path:url(#clip-path-4);}.cls-11{stroke-width:3.33px;}.cls-12{clip-path:url(#clip-path-5);}.cls-13{clip-path:url(#clip-path-6);}.cls-14,.cls-16{stroke:#878787;}.cls-14{stroke-width:5px;}.cls-15{fill:#231f20;}.cls-16{stroke-width:8px;}.cls-17,.cls-18,.cls-19,.cls-20,.cls-21{stroke:#231f20;}.cls-17{stroke-width:9px;}.cls-18,.cls-19,.cls-20,.cls-21{stroke-linecap:round;stroke-miterlimit:6;stroke-width:4px;}.cls-19{stroke-dasharray:4.09 5.62;}.cls-20{stroke-dasharray:4.06 5.58;}.cls-21{stroke-dasharray:3.94 5.41;}</style><clipPath id="clip-path"><polygon class="cls-1" points="193.75 29.81 149.78 18.03 149.78 62.01 193.75 73.79 193.75 29.81"/></clipPath><clipPath id="clip-path-2"><polygon class="cls-1" points="194.22 135.37 150.25 123.59 150.25 167.57 194.22 179.35 194.22 135.37"/></clipPath><clipPath id="clip-path-3"><polygon class="cls-1" points="133.06 81.59 89.08 69.81 89.08 113.79 133.06 125.57 133.06 81.59"/></clipPath><clipPath id="clip-path-4"><polygon class="cls-1" points="193.59 82.49 149.62 70.7 149.62 114.68 193.59 126.46 193.59 82.49"/></clipPath><clipPath id="clip-path-5"><polygon class="cls-1" points="132.43 28.71 88.46 16.93 88.45 60.9 132.43 72.69 132.43 28.71"/></clipPath><clipPath id="clip-path-6"><polygon class="cls-1" points="132.9 134.27 88.93 122.49 88.92 166.46 132.9 178.25 132.9 134.27"/></clipPath></defs><title>icons</title><g id="whiteout"><polygon class="cls-2" points="91 70.3 132 81.29 132 125.23 91 114.25 91 70.3"/><polygon class="cls-2" points="90.42 123.13 133.59 134.7 133.59 180.97 90.42 169.4 90.42 123.13"/><polygon class="cls-2" points="90 16.97 131 27.96 131 71.9 90 60.91 90 16.97"/><polygon class="cls-2" points="149.75 69.3 192.25 80.68 192.25 126.23 149.75 114.84 149.75 69.3"/><polygon class="cls-2" points="151 124.58 192 135.57 192 179.51 151 168.53 151 124.58"/><polygon class="cls-2" points="149.76 15.78 192.24 27.16 192.24 72.69 149.76 61.31 149.76 15.78"/></g><g id="Layer_2" data-name="Layer 2"><g class="cls-3"><polygon class="cls-4" points="190.19 19.72 162.27 27.4 189.35 51.25 190.19 19.72"/><ellipse class="cls-4" cx="186.23" cy="57.31" rx="17.72" ry="23.15" transform="translate(8.33 136.79) rotate(-41.18)"/><path class="cls-4" d="M173,56.24c-8.33,6.09-16.66-3.28-14.28,8.07s-2.27,16.28-9.51,5.77c-13.09-19,10.7-26.87,2.38-27.91s0-13.08,4.75-11.81,1.19,8.65,4.76,9.6S186.9,46,173,56.24Z"/></g><polygon class="cls-1" points="193.75 29.81 149.78 18.03 149.78 62.01 193.75 73.79 193.75 29.81"/><g class="cls-5"><polygon class="cls-4" points="165.23 113.21 137.31 120.89 164.4 144.74 165.23 113.21"/><ellipse class="cls-4" cx="186.7" cy="162.87" rx="17.72" ry="23.15" transform="translate(-61.06 163.21) rotate(-41.18)"/><path class="cls-6" d="M182.34,147.57c-4.81,9.13-16.4,4.36-9.29,13.51s5.1,15.63-6,9.36c-20.07-11.31-2.15-28.84-10.09-26.12s-5.74-11.76-.91-12.7,4.86,7.24,8.49,6.54S190.39,132.31,182.34,147.57Z"/></g><polygon class="cls-1" points="194.22 135.37 150.25 123.59 150.25 167.57 194.22 179.35 194.22 135.37"/><polygon class="cls-2" points="89.08 69.81 89.08 113.79 133.06 125.57 133.06 81.59 89.08 69.81"/><g class="cls-7"><polygon class="cls-8" points="126.83 91.56 100.11 80.42 106.76 115.89 126.83 91.56"/><ellipse class="cls-4" cx="100.62" cy="77.63" rx="17.72" ry="23.15" transform="translate(-26.22 85.44) rotate(-41.18)"/><path class="cls-9" d="M122.86,130.64c-9.52-4-5.78-16-14.27-8.08s-15.13,6.45-9.86-5.18c9.52-21,28.55-4.66,25.15-12.33s11.22-6.74,12.58-2-6.8,5.47-5.78,9S138.76,137.33,122.86,130.64Z"/></g><polygon class="cls-1" points="133.06 81.59 89.08 69.81 89.08 113.79 133.06 125.57 133.06 81.59"/><g class="cls-10"><line class="cls-11" x1="203.61" y1="112.77" x2="121.58" y2="95.58"/><line class="cls-11" x1="210.36" y1="78.63" x2="150.67" y2="122.54"/><line class="cls-11" x1="180.7" y1="73.08" x2="150.22" y2="126.32"/></g><polygon class="cls-1" points="193.59 82.49 149.62 70.7 149.62 114.68 193.59 126.46 193.59 82.49"/><g class="cls-12"><line class="cls-11" x1="153.39" y1="53.92" x2="76.3" y2="19.7"/><line class="cls-11" x1="149.2" y1="24.85" x2="89.51" y2="68.77"/><line class="cls-11" x1="85.4" y1="12.55" x2="118.13" y2="69.25"/></g><polygon class="cls-1" points="132.43 28.71 88.46 16.93 88.45 60.9 132.43 72.69 132.43 28.71"/><g class="cls-13"><line class="cls-11" x1="153.86" y1="159.48" x2="76.77" y2="125.26"/><line class="cls-11" x1="142.92" y1="164.55" x2="60.89" y2="147.36"/><line class="cls-11" x1="120" y1="124.86" x2="89.53" y2="178.1"/><line class="cls-11" x1="85.87" y1="118.11" x2="118.6" y2="174.81"/></g><polygon class="cls-1" points="132.9 134.27 88.93 122.49 88.92 166.46 132.9 178.25 132.9 134.27"/></g><g id="Layer_1" data-name="Layer 1"><polygon class="cls-14" points="91 70.3 132 81.28 132 125.23 91 114.24 91 70.3"/><path class="cls-15" d="M93.5,127.93l36,9.65v38.58l-36-9.65V127.93m-6-7.82v51L92,172.31,128,182l7.55,2V133l-4.45-1.19-36-9.65-7.55-2Z"/><polygon class="cls-14" points="90 16.97 131 27.95 131 71.9 90 60.91 90 16.97"/><path class="cls-15" d="M153.5,73.65l36,9.64v38.58l-36-9.64V73.65m-6-7.82v51L152,118l36,9.65,7.55,2v-51l-4.45-1.19-36-9.65-7.55-2Z"/><polygon class="cls-14" points="151 124.58 192 135.56 192 179.51 151 168.52 151 124.58"/><path class="cls-15" d="M152.5,20.12l36,9.64V68.35l-36-9.65V20.12m-6-7.82v51L151,64.5l36,9.64,7.55,2v-51L190.05,24l-36-9.65-7.55-2Z"/><line class="cls-16" x1="33" y1="23.5" x2="61" y2="23.5"/><line class="cls-16" x1="3.78" y1="146.35" x2="61.43" y2="146.35"/><line class="cls-16" x1="24.48" y1="85.11" x2="61.43" y2="85.11"/><line class="cls-17" x1="18" y1="65.11" x2="61.43" y2="65.11"/><line class="cls-16" x1="24.48" y1="44.28" x2="61.43" y2="44.28"/><line class="cls-16" x1="11.17" y1="125.94" x2="61.43" y2="125.94"/><line class="cls-16" x1="15.61" y1="166.76" x2="61.43" y2="166.76"/><line class="cls-16" x1="15.61" y1="105.52" x2="61.43" y2="105.52"/><path class="cls-18" d="M60.91,65.27l2,.13"/><path class="cls-19" d="M68.53,65.63c53.51,1,34.94-34.51,76-26.44"/><path class="cls-18" d="M147.33,39.78l1.94.46"/><path class="cls-18" d="M60.91,65.4c.69-.07,1.35-.13,2-.17"/><path class="cls-20" d="M68.48,65.26c36.26,3.14-10.59,68.65,16.76,81.45"/><path class="cls-18" d="M87.85,147.7c.62.18,1.26.35,1.94.49"/><path class="cls-18" d="M60.91,65.4l2,.14"/><path class="cls-21" d="M68.3,66c47,4.8,45.63,24.08,76.27,25.84"/><path class="cls-18" d="M147.27,92l2,0"/></g></svg>