<svg xmlns="http://www.w3.org/2000/svg" xmlns:xlink="http://www.w3.org/1999/xlink" viewBox="0 0 200 200"><defs><style>.cls-1,.cls-10,.cls-12,.cls-15,.cls-5,.cls-7,.cls-9{fill:none;}.cls-1,.cls-10,.cls-12,.cls-3,.cls-5,.cls-7,.cls-9{stroke:#b3b3b3;}.cls-1,.cls-3{stroke-miterlimit:10;}.cls-2,.cls-3{fill:#fff;}.cls-4{clip-path:url(#clip-path);}.cls-5{stroke-width:3.33px;}.cls-6{clip-path:url(#clip-path-2);}.cls-7{stroke-width:2.98px;}.cls-8{clip-path:url(#clip-path-3);}.cls-9{stroke-width:3.08px;}.cls-10{stroke-width:2.93px;}.cls-11{clip-path:url(#clip-path-4);}.cls-12{stroke-width:3.33px;}.cls-13{clip-path:url(#clip-path-5);}.cls-14{clip-path:url(#clip-path-6);}.cls-15{stroke:#231f20;stroke-width:4px;}</style><clipPath id="clip-path"><polygon class="cls-1" points="18.35 64.94 18.35 116.6 66.55 103.68 66.55 52.02 18.35 64.94"/></clipPath><clipPath id="clip-path-2"><polygon class="cls-1" points="133.91 33.42 133.91 85.08 182.12 72.17 182.12 20.5 133.91 33.42"/></clipPath><clipPath id="clip-path-3"><polygon class="cls-1" points="75.24 111.59 75.24 163.26 123.44 150.34 123.44 98.68 75.24 111.59"/></clipPath><clipPath id="clip-path-4"><polygon class="cls-1" points="76.13 49.64 76.13 101.3 124.33 88.39 124.33 36.73 76.13 49.64"/></clipPath><clipPath id="clip-path-5"><polygon class="cls-1" points="17.46 127.81 17.46 179.48 65.66 166.56 65.66 114.9 17.46 127.81"/></clipPath><clipPath id="clip-path-6"><polygon class="cls-1" points="133.02 96.3 133.02 147.96 181.22 135.04 181.22 83.38 133.02 96.3"/></clipPath></defs><title>icons</title><g id="whiteout"><polygon class="cls-2" points="18.35 116.6 66.55 103.69 66.55 52.02 18.35 64.94 18.35 116.6"/><polygon class="cls-3" points="133.91 85.08 182.11 72.17 182.11 20.5 133.91 33.42 133.91 85.08"/><polygon class="cls-2" points="75.24 163.26 123.44 150.34 123.44 98.68 75.24 111.59 75.24 163.26"/><polygon class="cls-2" points="76.13 101.31 124.33 88.39 124.33 36.73 76.13 49.64 76.13 101.31"/><polygon class="cls-2" points="17.46 179.48 65.66 166.56 65.66 114.9 17.46 127.81 17.46 179.48"/><polygon class="cls-2" points="133.02 147.96 181.22 135.05 181.22 83.38 133.02 96.3 133.02 147.96"/></g><g id="Layer_1" data-name="Layer 1"><g class="cls-4"><polygon class="cls-5" points="8.33 71.81 24.95 100.15 43.14 63.46 8.33 71.81"/><ellipse class="cls-5" cx="50.7" cy="65.11" rx="26.26" ry="20.11" transform="translate(-31.61 70.98) rotate(-56.18)"/><path class="cls-5" d="M53.41,80c9.13,7.34,1.31,19.21,13,13.27S85,90.93,75.58,102c-16.95,19.91-32.6-3.85-31.29,5.59S30,111.39,30,105.8s9.12-3.84,9.12-8S38.15,67.68,53.41,80Z"/></g><polygon class="cls-1" points="18.35 64.94 18.35 116.6 66.55 103.68 66.55 52.02 18.35 64.94"/><g class="cls-6"><polygon class="cls-5" points="118.13 71.71 134.75 100.05 152.94 63.36 118.13 71.71"/><ellipse class="cls-5" cx="166.26" cy="33.59" rx="26.26" ry="20.11" transform="matrix(0.56, -0.83, 0.83, 0.56, 45.81, 153.02)"/><path class="cls-7" d="M150.77,42.86c11.42,2.59,9.59,16.7,17.54,6.21s15.63-10.18,12,3.85c-6.51,25.33-31,10.84-25.67,18.74S143.46,81.4,141,76.38s6.52-7.46,4.68-11.22S131.68,38.52,150.77,42.86Z"/></g><polygon class="cls-1" points="133.91 33.42 133.91 85.08 182.12 72.17 182.12 20.5 133.91 33.42"/><g class="cls-8"><polygon class="cls-9" points="87.99 115.5 83.63 148.06 120.55 130.34 87.99 115.5"/><ellipse class="cls-5" cx="80.42" cy="148.32" rx="26.26" ry="20.11" transform="translate(-87.57 132.57) rotate(-56.18)"/><path class="cls-10" d="M132,108.38c-1.59,11.6-15.8,11-4.66,18s11.5,14.68-2.79,12.32c-25.79-4.27-13.49-29.92-20.9-23.94S93,104.45,97.75,101.58s8,5.84,11.58,3.68S134.65,89,132,108.38Z"/></g><polygon class="cls-1" points="75.24 111.59 75.24 163.26 123.44 150.34 123.44 98.68 75.24 111.59"/><g class="cls-11"><line class="cls-12" x1="106.38" y1="29.77" x2="111.63" y2="124.73"/><line class="cls-12" x1="66.98" y1="32.4" x2="132.64" y2="84.93"/><line class="cls-12" x1="69.61" y1="66.54" x2="136.91" y2="84.31"/></g><polygon class="cls-1" points="76.13 49.64 76.13 101.3 124.33 88.39 124.33 36.73 76.13 49.64"/><g class="cls-13"><line class="cls-12" x1="38.93" y1="97.44" x2="24.07" y2="191.99"/><line class="cls-12" x1="8.31" y1="110.57" x2="73.97" y2="163.1"/><line class="cls-12" x1="13.56" y1="184.11" x2="66.09" y2="131.58"/></g><polygon class="cls-1" points="17.46 127.81 17.46 179.48 65.66 166.56 65.66 114.9 17.46 127.81"/><g class="cls-14"><line class="cls-12" x1="154.49" y1="65.92" x2="139.63" y2="160.47"/><line class="cls-12" x1="163.27" y1="76.43" x2="168.52" y2="171.39"/><line class="cls-12" x1="126.5" y1="113.2" x2="193.8" y2="130.96"/><line class="cls-12" x1="129.12" y1="152.59" x2="181.65" y2="100.06"/></g><polygon class="cls-1" points="133.02 96.3 133.02 147.96 181.22 135.04 181.22 83.38 133.02 96.3"/><polygon class="cls-15" points="18.35 116.6 66.55 103.68 66.55 52.02 18.35 64.94 18.35 116.6"/><polygon class="cls-15" points="133.91 85.08 182.11 72.17 182.11 20.5 133.91 33.42 133.91 85.08"/><polygon class="cls-15" points="75.24 163.25 123.44 150.34 123.44 98.68 75.24 111.59 75.24 163.25"/><polygon class="cls-15" points="76.13 101.3 124.33 88.39 124.33 36.73 76.13 49.64 76.13 101.3"/><polygon class="cls-15" points="17.46 179.48 65.66 166.56 65.66 114.9 17.46 127.81 17.46 179.48"/><polygon class="cls-15" points="133.02 147.96 181.22 135.04 181.22 83.38 133.02 96.3 133.02 147.96"/></g></svg>