<svg width="128" height="128" viewBox="0 0 128 128" fill="none" xmlns="http://www.w3.org/2000/svg">
<rect width="128" height="128" fill="white" fill-opacity="0.1"/>
<path d="M14 22.5L45 14L76 22.5V58L83 56L113.5 64.5L114 106.5L83 115L52 106.5V71L45 73L14 64V22.5Z" fill="white" stroke="black" stroke-width="3"/>
<path d="M68.6621 56.4985C67.7135 57.8073 67.7135 60.4681 68.6621 61.2685C69.4362 62.3537 71.389 61.8304 72.1631 60.3305C73.1117 59.0216 73.1117 56.3608 72.1631 55.5604C71.389 54.4753 69.4362 54.9985 68.6621 56.4985Z" fill="black"/>
<path d="M79.3317 59.1235C79.157 58.6619 81.1099 58.1386 82.8326 58.1854C84.5553 58.1386 86.5082 58.6619 86.3335 59.1235C86.5082 59.5851 84.5553 60.1084 82.8326 60.0616C81.1099 60.1084 79.157 59.5851 79.3317 59.1235Z" fill="black"/>
<path d="M68.6621 29.5874C69.4362 28.0875 71.389 27.5642 72.1631 28.6494C73.1117 29.4498 73.1117 32.1106 72.1631 33.4194C71.389 34.9194 69.4362 35.4426 68.6621 34.3574C67.7135 33.557 67.7135 30.8962 68.6621 29.5874Z" fill="black"/>
<path d="M48.9109 61.7908C47.9622 63.0996 47.9622 65.7604 48.9109 66.5608C49.6849 67.646 51.6378 67.1227 52.4118 65.6227C53.3605 64.314 53.3605 61.6532 52.4118 60.8528C51.6378 59.7676 49.6849 60.2909 48.9109 61.7908Z" fill="black"/>
<path d="M86.7189 95.2081C85.7702 94.4077 85.7702 91.7469 86.7189 90.4381C87.4929 88.9381 89.4458 88.4149 90.2197 89.5C91.1684 90.3005 91.1684 92.9613 90.2197 94.27C89.4458 95.77 87.4929 96.2932 86.7189 95.2081Z" fill="black"/>
<path d="M58.7865 45.6891C57.8378 46.9979 57.8378 49.6587 58.7865 50.4591C59.5606 51.5443 61.5134 51.0211 62.2874 49.5211C63.2361 48.2123 63.2361 45.5515 62.2874 44.7511C61.5134 43.6659 59.5606 44.1892 58.7865 45.6891Z" fill="black"/>
<path d="M106.47 76.4603C105.521 75.6598 105.521 72.999 106.47 71.6903C107.244 70.1903 109.197 69.667 109.971 70.7522C110.92 71.5526 110.92 74.2134 109.971 75.5222C109.197 77.0222 107.244 77.5454 106.47 76.4603Z" fill="black"/>
<path d="M59.1951 103.371C58.4211 104.456 56.4682 103.933 55.6942 102.433C54.7455 101.124 54.7455 98.4636 55.6942 97.6633C56.4682 96.5781 58.4211 97.1014 59.1951 98.6013C60.1438 99.9101 60.1438 102.571 59.1951 103.371Z" fill="black"/>
<path d="M48.9109 34.8797C47.9622 36.1886 47.9622 38.8494 48.9109 39.6497C49.6849 40.7349 51.6378 40.2117 52.4118 38.7117C53.3605 37.4029 53.3605 34.7421 52.4118 33.9417C51.6378 32.8565 49.6849 33.3798 48.9109 34.8797Z" fill="black"/>
<path d="M86.7189 81.7525C85.7702 80.9522 85.7702 78.2914 86.7189 76.9825C87.4929 75.4826 89.4458 74.9593 90.2197 76.0445C91.1684 76.8449 91.1684 79.5057 90.2197 80.8145C89.4458 82.3145 87.4929 82.8377 86.7189 81.7525Z" fill="black"/>
<path d="M78.9464 81.7525C79.8951 80.9522 79.8951 78.2914 78.9464 76.9825C78.1723 75.4826 76.2194 74.9593 75.4455 76.0445C74.4968 76.8449 74.4968 79.5057 75.4455 80.8145C76.2194 82.3145 78.1723 82.8377 78.9464 81.7525Z" fill="black"/>
<path d="M79.3317 64.4159C79.157 64.8774 81.1099 65.4007 82.8326 65.3539C84.5553 65.4007 86.5082 64.8774 86.3335 64.4159C86.5082 63.9543 84.5553 63.431 82.8326 63.4778C81.1099 63.431 79.157 63.9543 79.3317 64.4159Z" fill="black"/>
<path d="M106.47 103.371C107.244 104.456 109.197 103.933 109.971 102.433C110.92 101.124 110.92 98.4636 109.971 97.6633C109.197 96.5781 107.244 97.1014 106.47 98.6013C105.521 99.9101 105.521 102.571 106.47 103.371Z" fill="black"/>
<path d="M45.0247 16.0826C43.302 16.0358 41.3491 16.5591 41.5237 17.0207C41.3491 17.4823 43.302 18.0056 45.0247 17.9588C46.7474 18.0056 48.7003 17.4823 48.5256 17.0207C48.7003 16.5591 46.7474 16.0358 45.0247 16.0826Z" fill="black"/>
<path d="M31.2628 45.6891C32.2115 46.9979 32.2115 49.6587 31.2628 50.4591C30.4888 51.5443 28.5359 51.0211 27.7619 49.5211C26.8132 48.2123 26.8132 45.5515 27.7619 44.7511C28.5359 43.6659 30.4888 44.1892 31.2628 45.6891Z" fill="black"/>
<path d="M45.0247 26.6673C43.302 26.6205 41.3491 27.1438 41.5237 27.6054C41.3491 28.067 43.302 28.5903 45.0247 28.5435C46.7474 28.5903 48.7003 28.067 48.5256 27.6054C48.7003 27.1438 46.7474 26.6205 45.0247 26.6673Z" fill="black"/>
<path d="M79.3317 69.7082C79.157 70.1698 81.1099 70.6931 82.8326 70.6463C84.5553 70.6931 86.5082 70.1698 86.3335 69.7082C86.5082 69.2466 84.5553 68.7233 82.8326 68.7701C81.1099 68.7233 79.157 69.2466 79.3317 69.7082Z" fill="black"/>
<path d="M64.7759 21.375C66.4986 21.3282 68.4515 21.8515 68.2769 22.313C68.4515 22.7746 66.4986 23.2979 64.7759 23.2511C63.0533 23.2979 61.1004 22.7746 61.275 22.313C61.1004 21.8515 63.0533 21.3282 64.7759 21.375Z" fill="black"/>
<path d="M106.47 89.9158C105.521 89.1154 105.521 86.4546 106.47 85.1458C107.244 83.6458 109.197 83.1226 109.971 84.2077C110.92 85.0081 110.92 87.6689 109.971 88.9777C109.197 90.4777 107.244 91.001 106.47 89.9158Z" fill="black"/>
<path d="M25.2734 21.375C23.5508 21.3282 21.5979 21.8515 21.7725 22.313C21.5979 22.7746 23.5508 23.2979 25.2734 23.2511C26.9961 23.2979 28.949 22.7746 28.7744 22.313C28.949 21.8515 26.9961 21.3282 25.2734 21.375Z" fill="black"/>
<path d="M86.7189 108.664C85.7702 107.863 85.7702 105.202 86.7189 103.894C87.4929 102.394 89.4458 101.87 90.2197 102.956C91.1684 103.756 91.1684 106.417 90.2197 107.726C89.4458 109.226 87.4929 109.749 86.7189 108.664Z" fill="black"/>
<path d="M14 22.3131V64.5841L45.0247 72.8972M14 22.3131L45.0247 14L76.0494 22.3131M14 22.3131L45.0247 30.6261M76.0494 22.3131L45.0247 30.6261M76.0494 22.3131L76.0493 64.5841L45.0247 72.8972M45.0247 30.6261L45.0247 72.8972M76.0684 57.9153L82.8326 56.1028L113.857 64.4159M113.857 64.4159L82.8326 72.7289M113.857 64.4159V106.687L82.8326 115M82.8326 115L51.8079 106.687V71.0796M82.8326 115L82.8326 72.7289M82.8326 72.7289L64.2521 67.7503" stroke="black" stroke-width="2"/>
<path d="M51.5 71L76 64.5V57" stroke="black" stroke-width="3"/>
</svg>
