<svg id="Layer_1" data-name="Layer 1" xmlns="http://www.w3.org/2000/svg" viewBox="0 0 259.1 233.35"><defs><style>.cls-1{fill:#fff;}.cls-1,.cls-2,.cls-3{stroke:#231f20;}.cls-2,.cls-3{fill:none;}.cls-3{stroke-width:0.62px;}</style></defs><title>spatial_quaranzine_logos</title><path class="cls-1" d="M244.32,220.13H16V14H244.32ZM257,231.58V2.5H3.34V231.58H257Z"/><line class="cls-2" x1="257.41" y1="30.62" x2="244.73" y2="30.62"/><line class="cls-2" x1="16.01" y1="30.62" x2="3.33" y2="30.62"/><line class="cls-2" x1="257.41" y1="135.87" x2="244.73" y2="135.87"/><line class="cls-2" x1="16.01" y1="135.87" x2="3.33" y2="135.87"/><line class="cls-2" x1="257.29" y1="95.39" x2="244.6" y2="95.39"/><line class="cls-2" x1="15.89" y1="95.39" x2="3.21" y2="95.39"/><line class="cls-3" x1="257.29" y1="200.64" x2="244.6" y2="200.64"/><line class="cls-2" x1="15.89" y1="200.64" x2="3.21" y2="200.64"/><rect class="cls-3" x="248.64" y="30.62" width="4.86" height="4.86"/><rect class="cls-3" x="7.24" y="30.62" width="4.86" height="4.86"/><rect class="cls-3" x="248.64" y="135.87" width="4.86" height="4.86"/><rect class="cls-3" x="7.24" y="135.87" width="4.86" height="4.86"/><rect class="cls-3" x="248.64" y="90.54" width="4.86" height="4.86"/><rect class="cls-3" x="7.24" y="90.54" width="4.86" height="4.86"/><rect class="cls-3" x="248.64" y="195.79" width="4.86" height="4.86"/><rect class="cls-3" x="7.24" y="195.79" width="4.86" height="4.86"/><line class="cls-3" x1="252.69" y1="195.38" x2="252.69" y2="141.14"/><line class="cls-3" x1="11.29" y1="195.38" x2="11.29" y2="141.14"/><line class="cls-3" x1="249.45" y1="195.38" x2="249.45" y2="141.14"/><line class="cls-3" x1="8.05" y1="195.38" x2="8.05" y2="141.14"/><line class="cls-3" x1="252.69" y1="90.13" x2="252.69" y2="35.89"/><line class="cls-3" x1="11.29" y1="90.13" x2="11.29" y2="35.89"/><line class="cls-3" x1="249.45" y1="90.13" x2="249.45" y2="35.89"/><line class="cls-3" x1="8.05" y1="90.13" x2="8.05" y2="35.89"/></svg>